/* XPM */
static char * stick_inactive_xpm[] = {
"13 13 3 1",
" 	c None",
".	c #292929",
"+	c #808080",
".............",
".............",
".............",
".............",
".....+++.....",
".....+++.....",
"....+++++....",
"......+......",
"......+......",
".............",
".............",
".............",
"............."};
